<?xml version="1.0" encoding="UTF-8" standalone="no"?><!-- Generator: Gravit.io --><svg xmlns="http://www.w3.org/2000/svg" xmlns:xlink="http://www.w3.org/1999/xlink" style="isolation:isolate" viewBox="0 0 300 300" width="300pt" height="300pt"><defs><clipPath id="_clipPath_pXBVqaYxc2XR61TE7LEMd002WGpg4WZF"><rect width="300" height="300"/></clipPath></defs><g clip-path="url(#_clipPath_pXBVqaYxc2XR61TE7LEMd002WGpg4WZF)"><path d=" M 24 59.5 C 24 42.115 38.115 28 55.5 28 C 72.885 28 87 42.115 87 59.5 C 87 76.885 72.885 91 55.5 91 C 38.115 91 24 76.885 24 59.5 L 24 59.5 L 24 59.5 L 24 59.5 L 24 59.5 Z  M 213 59.5 C 213 42.115 227.115 28 244.5 28 C 261.885 28 276 42.115 276 59.5 C 276 76.885 261.885 91 244.5 91 C 227.115 91 213 76.885 213 59.5 L 213 59.5 L 213 59.5 L 213 59.5 Z  M 118.5 150 C 118.5 132.615 132.615 118.5 150 118.5 C 167.385 118.5 181.5 132.615 181.5 150 C 181.5 167.385 167.385 181.5 150 181.5 C 132.615 181.5 118.5 167.385 118.5 150 L 118.5 150 L 118.5 150 Z  M 213 242.5 C 213 225.115 227.115 211 244.5 211 C 261.885 211 276 225.115 276 242.5 C 276 259.885 261.885 274 244.5 274 C 227.115 274 213 259.885 213 242.5 L 213 242.5 Z  M 28.74 9 L 271.26 9 C 282.155 9 291 17.845 291 28.74 L 291 271.26 C 291 282.155 282.155 291 271.26 291 L 28.74 291 C 17.845 291 9 282.155 9 271.26 L 9 28.74 C 9 17.845 17.845 9 28.74 9 L 28.74 9 L 28.74 9 L 28.74 9 L 28.74 9 Z  M 24 242.5 C 24 225.115 38.115 211 55.5 211 C 72.885 211 87 225.115 87 242.5 C 87 259.885 72.885 274 55.5 274 C 38.115 274 24 259.885 24 242.5 Z " fill-rule="evenodd" fill="rgb(74,74,74)"/></g></svg>