<?xml version="1.0" encoding="UTF-8" standalone="no"?><!-- Generator: Gravit.io --><svg xmlns="http://www.w3.org/2000/svg" xmlns:xlink="http://www.w3.org/1999/xlink" style="isolation:isolate" viewBox="0 0 534 534" width="534pt" height="534pt"><defs><clipPath id="_clipPath_LdIccsOk5EdQJGD06kiSD5NCwv3c3j5s"><rect width="534" height="534"/></clipPath></defs><g clip-path="url(#_clipPath_LdIccsOk5EdQJGD06kiSD5NCwv3c3j5s)"><rect width="534" height="534" style="fill:rgb(51,51,51)" fill-opacity="0"/><defs><filter id="HJXb9BsYHztPxEo5SEJaYV3h3UU6QWaz" x="-200%" y="-200%" width="400%" height="400%" filterUnits="objectBoundingBox" color-interpolation-filters="sRGB"><feGaussianBlur xmlns="http://www.w3.org/2000/svg" stdDeviation="21.46804531419514"/></filter></defs><g filter="url(#HJXb9BsYHztPxEo5SEJaYV3h3UU6QWaz)" style="mix-blend-mode:normal;" opacity="0.42"><path d="M 45.39 0 L 488.61 0 C 513.661 0 534 20.339 534 45.39 L 534 488.61 C 534 513.661 513.661 534 488.61 534 L 45.39 534 C 20.339 534 0 513.661 0 488.61 L 0 45.39 C 0 20.339 20.339 0 45.39 0 Z" style="stroke:none;fill:#9900FF;stroke-miterlimit:10;"/></g><defs><filter id="W30SWJU5JBBiVM3n6h1hbOQmIOxt3xl8" x="-200%" y="-200%" width="400%" height="400%" filterUnits="objectBoundingBox" color-interpolation-filters="sRGB"><feGaussianBlur xmlns="http://www.w3.org/2000/svg" stdDeviation="21.46804531419514"/></filter></defs><g filter="url(#W30SWJU5JBBiVM3n6h1hbOQmIOxt3xl8)"><path d="M 59.5 17 L 474.5 17 C 497.956 17 517 36.044 517 59.5 L 517 474.5 C 517 497.956 497.956 517 474.5 517 L 59.5 517 C 36.044 517 17 497.956 17 474.5 L 17 59.5 C 17 36.044 36.044 17 59.5 17 Z" style="stroke:none;fill:#54008C;stroke-miterlimit:10;"/></g><text transform="matrix(1,0,0,1,100.253,294.137)" style="font-family:'Impact';font-weight:400;font-size:300px;font-style:normal;fill:#af37ff;stroke:none;">BD</text><text transform="matrix(0,1,-1,0,95.265,315.551)" style="font-family:'Impact';font-weight:400;font-size:425px;font-style:normal;fill:#af37ff;stroke:none;">T</text></g></svg>